# xmcd
#
# Track frame offsets:
#	150
#	14661
#	23838
#	36327
#	51424
#	62543
#	75546
#	85719
#	100727
#	112579
#
# Disc length: 1653 seconds
#
# Revision: 1
# Processed by: cddbd v1.5.2PL0 Copyright (c) Steve Scherf et al.
# Submitted via: audiograbber 1.83.01
#
DISCID=6f06730a
DTITLE=George Strait - Does Fort Wroth Ever Cross Your Mind
DYEAR=1984
DGENRE=Country
TTITLE0=Does Fort Worth Ever Cross Your Mind
TTITLE1=Any Old Time
TTITLE2=I Need Someone Like Me
TTITLE3=You're Dancin' this Dance All Wrong
TTITLE4=Honky Tonk Saturday Night
TTITLE5=I Should Have Watched That First Step
TTITLE6=Love Comes From The Other Side Of Town
TTITLE7=The Cowboy Rides Away
TTITLE8=What Did You Expect Me To Do
TTITLE9=The Fireman
EXTD=
EXTT0=
EXTT1=
EXTT2=
EXTT3=
EXTT4=
EXTT5=
EXTT6=
EXTT7=
EXTT8=
EXTT9=
PLAYORDER=
